<svg width="254" height="80" viewBox="0 0 254 80" fill="none" xmlns="http://www.w3.org/2000/svg">
<g clip-path="url(#clip0_241_892)">
<path d="M16.856 62.392C13.8693 62.392 11.2187 61.9067 8.904 60.936C6.62667 59.9653 4.816 58.6213 3.472 56.904C2.128 55.1867 1.36267 53.2453 1.176 51.08H13.104C13.2533 52.0133 13.6453 52.704 14.28 53.152C14.952 53.6 15.792 53.824 16.8 53.824C17.4347 53.824 17.9387 53.6933 18.312 53.432C18.6853 53.1333 18.872 52.7787 18.872 52.368C18.872 51.6587 18.48 51.1547 17.696 50.856C16.912 50.5573 15.5867 50.2213 13.72 49.848C11.4427 49.4 9.55733 48.9147 8.064 48.392C6.608 47.8693 5.32 46.9733 4.2 45.704C3.11733 44.4347 2.576 42.68 2.576 40.44C2.576 38.4987 3.08 36.744 4.088 35.176C5.13333 33.5707 6.664 32.32 8.68 31.424C10.696 30.4907 13.1413 30.024 16.016 30.024C20.272 30.024 23.5947 31.0693 25.984 33.16C28.4107 35.2507 29.8667 37.976 30.352 41.336H19.32C19.1333 40.4773 18.7413 39.824 18.144 39.376C17.5467 38.8907 16.744 38.648 15.736 38.648C15.1013 38.648 14.616 38.7787 14.28 39.04C13.944 39.264 13.776 39.6187 13.776 40.104C13.776 40.7387 14.168 41.224 14.952 41.56C15.736 41.8587 16.9867 42.176 18.704 42.512C20.9813 42.96 22.904 43.464 24.472 44.024C26.04 44.584 27.4027 45.5547 28.56 46.936C29.7173 48.28 30.296 50.1467 30.296 52.536C30.296 54.4027 29.7547 56.0827 28.672 57.576C27.5893 59.0693 26.0213 60.2453 23.968 61.104C21.952 61.9627 19.5813 62.392 16.856 62.392ZM31.3097 46.208C31.3097 42.8853 31.8697 40.0107 32.9897 37.584C34.147 35.12 35.715 33.2533 37.6937 31.984C39.6724 30.6773 41.8937 30.024 44.3577 30.024C46.411 30.024 48.1657 30.4533 49.6217 31.312C51.115 32.1333 52.2537 33.272 53.0377 34.728V20.56H65.4697V62H53.0377V57.688C52.2537 59.144 51.115 60.3013 49.6217 61.16C48.1657 61.9813 46.411 62.392 44.3577 62.392C41.8937 62.392 39.6724 61.7573 37.6937 60.488C35.715 59.1813 34.147 57.3147 32.9897 54.888C31.8697 52.424 31.3097 49.5307 31.3097 46.208ZM53.0937 46.208C53.0937 44.528 52.6644 43.2213 51.8057 42.288C50.947 41.3547 49.8457 40.888 48.5017 40.888C47.1577 40.888 46.0564 41.3547 45.1977 42.288C44.339 43.2213 43.9097 44.528 43.9097 46.208C43.9097 47.888 44.339 49.1947 45.1977 50.128C46.0564 51.0613 47.1577 51.528 48.5017 51.528C49.8457 51.528 50.947 51.0613 51.8057 50.128C52.6644 49.1947 53.0937 47.888 53.0937 46.208ZM82.8682 62.392C79.8815 62.392 77.2309 61.9067 74.9162 60.936C72.6389 59.9653 70.8282 58.6213 69.4842 56.904C68.1402 55.1867 67.3749 53.2453 67.1882 51.08H79.1162C79.2655 52.0133 79.6575 52.704 80.2922 53.152C80.9642 53.6 81.8042 53.824 82.8122 53.824C83.4469 53.824 83.9509 53.6933 84.3242 53.432C84.6975 53.1333 84.8842 52.7787 84.8842 52.368C84.8842 51.6587 84.4922 51.1547 83.7082 50.856C82.9242 50.5573 81.5989 50.2213 79.7322 49.848C77.4549 49.4 75.5695 48.9147 74.0762 48.392C72.6202 47.8693 71.3322 46.9733 70.2122 45.704C69.1295 44.4347 68.5882 42.68 68.5882 40.44C68.5882 38.4987 69.0922 36.744 70.1002 35.176C71.1455 33.5707 72.6762 32.32 74.6922 31.424C76.7082 30.4907 79.1535 30.024 82.0282 30.024C86.2842 30.024 89.6069 31.0693 91.9962 33.16C94.4229 35.2507 95.8789 37.976 96.3642 41.336H85.3322C85.1455 40.4773 84.7535 39.824 84.1562 39.376C83.5589 38.8907 82.7562 38.648 81.7482 38.648C81.1135 38.648 80.6282 38.7787 80.2922 39.04C79.9562 39.264 79.7882 39.6187 79.7882 40.104C79.7882 40.7387 80.1802 41.224 80.9642 41.56C81.7482 41.8587 82.9989 42.176 84.7162 42.512C86.9935 42.96 88.9162 43.464 90.4842 44.024C92.0522 44.584 93.4149 45.5547 94.5722 46.936C95.7295 48.28 96.3082 50.1467 96.3082 52.536C96.3082 54.4027 95.7669 56.0827 94.6842 57.576C93.6015 59.0693 92.0335 60.2453 89.9802 61.104C87.9642 61.9627 85.5935 62.392 82.8682 62.392ZM111.434 20.56V62H99.0019V20.56H111.434ZM113.129 46.208C113.129 42.8853 113.689 40.0107 114.809 37.584C115.966 35.12 117.534 33.2533 119.513 31.984C121.491 30.6773 123.713 30.024 126.177 30.024C128.23 30.024 130.003 30.4533 131.497 31.312C132.99 32.1333 134.129 33.272 134.913 34.728V30.416H147.289V62H134.913V57.688C134.129 59.144 132.99 60.3013 131.497 61.16C130.003 61.9813 128.23 62.392 126.177 62.392C123.713 62.392 121.491 61.7573 119.513 60.488C117.534 59.1813 115.966 57.3147 114.809 54.888C113.689 52.424 113.129 49.5307 113.129 46.208ZM134.913 46.208C134.913 44.528 134.483 43.2213 133.625 42.288C132.766 41.3547 131.665 40.888 130.321 40.888C128.977 40.888 127.875 41.3547 127.017 42.288C126.158 43.2213 125.729 44.528 125.729 46.208C125.729 47.888 126.158 49.1947 127.017 50.128C127.875 51.0613 128.977 51.528 130.321 51.528C131.665 51.528 132.766 51.0613 133.625 50.128C134.483 49.1947 134.913 47.888 134.913 46.208ZM163.063 34.728C163.847 33.272 164.967 32.1333 166.423 31.312C167.917 30.4533 169.69 30.024 171.743 30.024C174.207 30.024 176.429 30.6773 178.407 31.984C180.386 33.2533 181.935 35.12 183.055 37.584C184.213 40.0107 184.791 42.8853 184.791 46.208C184.791 49.5307 184.213 52.424 183.055 54.888C181.935 57.3147 180.386 59.1813 178.407 60.488C176.429 61.7573 174.207 62.392 171.743 62.392C169.69 62.392 167.917 61.9813 166.423 61.16C164.967 60.3013 163.847 59.144 163.063 57.688V62H150.631V20.56H163.063V34.728ZM172.191 46.208C172.191 44.528 171.762 43.2213 170.903 42.288C170.045 41.3547 168.943 40.888 167.599 40.888C166.255 40.888 165.154 41.3547 164.295 42.288C163.437 43.2213 163.007 44.528 163.007 46.208C163.007 47.888 163.437 49.1947 164.295 50.128C165.154 51.0613 166.255 51.528 167.599 51.528C168.943 51.528 170.045 51.0613 170.903 50.128C171.762 49.1947 172.191 47.888 172.191 46.208ZM200.51 62.392C197.523 62.392 194.872 61.9067 192.558 60.936C190.28 59.9653 188.47 58.6213 187.126 56.904C185.782 55.1867 185.016 53.2453 184.83 51.08H196.758C196.907 52.0133 197.299 52.704 197.934 53.152C198.606 53.6 199.446 53.824 200.454 53.824C201.088 53.824 201.592 53.6933 201.966 53.432C202.339 53.1333 202.526 52.7787 202.526 52.368C202.526 51.6587 202.134 51.1547 201.35 50.856C200.566 50.5573 199.24 50.2213 197.374 49.848C195.096 49.4 193.211 48.9147 191.718 48.392C190.262 47.8693 188.974 46.9733 187.854 45.704C186.771 44.4347 186.23 42.68 186.23 40.44C186.23 38.4987 186.734 36.744 187.742 35.176C188.787 33.5707 190.318 32.32 192.334 31.424C194.35 30.4907 196.795 30.024 199.67 30.024C203.926 30.024 207.248 31.0693 209.638 33.16C212.064 35.2507 213.52 37.976 214.006 41.336H202.974C202.787 40.4773 202.395 39.824 201.798 39.376C201.2 38.8907 200.398 38.648 199.39 38.648C198.755 38.648 198.27 38.7787 197.934 39.04C197.598 39.264 197.43 39.6187 197.43 40.104C197.43 40.7387 197.822 41.224 198.606 41.56C199.39 41.8587 200.64 42.176 202.358 42.512C204.635 42.96 206.558 43.464 208.126 44.024C209.694 44.584 211.056 45.5547 212.214 46.936C213.371 48.28 213.95 50.1467 213.95 52.536C213.95 54.4027 213.408 56.0827 212.326 57.576C211.243 59.0693 209.675 60.2453 207.622 61.104C205.606 61.9627 203.235 62.392 200.51 62.392Z" fill="#191919"/>
<path fill-rule="evenodd" clip-rule="evenodd" d="M254 15V67H230V15H254Z" fill="#FF5851"/>
</g>
<defs>
<clipPath id="clip0_241_892">
<rect width="254" height="80" fill="white"/>
</clipPath>
</defs>
</svg>
